<?xml version="1.0" standalone="no"?>
<!DOCTYPE svg PUBLIC "-//W3C//DTD SVG 20010904//EN"
 "http://www.w3.org/TR/2001/REC-SVG-20010904/DTD/svg10.dtd">
<svg version="1.0" xmlns="http://www.w3.org/2000/svg"
 width="260.000000pt" height="260.000000pt" viewBox="0 0 260.000000 260.000000"
 preserveAspectRatio="xMidYMid meet">
<metadata>
Created by potrace 1.11, written by Peter Selinger 2001-2013
</metadata>
<g transform="translate(0.000000,260.000000) scale(0.100000,-0.100000)"
fill="#000000" stroke="none">
<path d="M753 2008 c-355 -178 -545 -278 -552 -292 -20 -38 -20 -64 1 -91 14
-18 199 -116 560 -296 296 -148 545 -269 553 -269 18 0 1093 537 1111 555 24
23 28 72 10 100 -12 18 -169 102 -557 295 -297 149 -550 270 -562 270 -12 0
-266 -123 -564 -272z m994 -122 l427 -214 -429 -214 -429 -215 -423 211 c-233
116 -423 213 -423 216 0 4 833 426 847 429 2 1 195 -95 430 -213z"/>
<path d="M179 1372 c-43 -22 -60 -76 -36 -113 11 -17 187 -110 569 -300 304
-153 564 -280 576 -284 33 -10 1141 542 1167 581 33 51 0 117 -64 127 -15 2
-206 -88 -556 -263 l-534 -267 -527 265 c-290 145 -535 265 -545 267 -9 2 -32
-4 -50 -13z"/>
<path d="M204 990 c-26 -10 -54 -48 -54 -72 0 -58 4 -60 583 -350 308 -154
572 -280 586 -280 15 -1 259 116 587 280 492 246 563 285 573 310 21 51 -7
106 -60 118 -18 3 -168 -67 -562 -263 l-537 -268 -527 264 c-290 145 -536 265
-548 266 -11 2 -30 0 -41 -5z"/>
</g>
</svg>
